# xmcd
#
# Track frame offsets: 
#        150
#        15752
#        30942
#        47730
#        66430
#        79202
#        99625
#        117852
#        129480
#        147850
#        159915
#
# Disc length: 2332 seconds
#
# Revision: 0
# Processed by: cddbd v1.4PL0 Copyright (c) Steve Scherf et al.
# Submitted via: ExactAudioCopy v0.90a11
#
DISCID=82091a0b
DTITLE=Julian Austin - Back On Track
DYEAR=1900
DGENRE=
TTITLE0=Pour Me Another Memory
TTITLE1=Lonesome Highway
TTITLE2=Dashboard Lights
TTITLE3=Windows
TTITLE4=Line Dancin' Country Girl
TTITLE5=Dallas
TTITLE6=Price For Love
TTITLE7=When Your Gone
TTITLE8=Whiskey On Ice
TTITLE9=True Love
TTITLE10=Dad And I
EXTD=
EXTT0=
EXTT1=
EXTT2=
EXTT3=
EXTT4=
EXTT5=
EXTT6=
EXTT7=
EXTT8=
EXTT9=
EXTT10=
PLAYORDER=
